<?xml version="1.0" encoding="UTF-8" standalone="no"?><!DOCTYPE svg PUBLIC "-//W3C//DTD SVG 1.1//EN" "http://www.w3.org/Graphics/SVG/1.1/DTD/svg11.dtd"><svg width="100%" height="100%" viewBox="0 0 128 90" version="1.1" xmlns="http://www.w3.org/2000/svg" xmlns:xlink="http://www.w3.org/1999/xlink" xml:space="preserve" xmlns:serif="http://www.serif.com/" style="fill-rule:evenodd;clip-rule:evenodd;stroke-linecap:round;stroke-linejoin:round;stroke-miterlimit:1.41421;"><g><rect x="115.332" y="19.823" width="9.504" height="9.504" style="fill:none;stroke:#000;stroke-width:1.16px;"/><path d="M96.323,29.328l-9.504,0l0,-9.505l9.504,9.505Z" style="fill:none;stroke:#000;stroke-width:1.16px;"/><rect x="77.315" y="19.823" width="9.504" height="19.008" style="fill:none;stroke:#000;stroke-width:1.16px;"/><path d="M96.323,10.319l0,19.009l9.505,9.504l0,-28.513l-9.505,0Z" style="fill:none;stroke:#000;stroke-width:1.16px;"/><rect x="105.828" y="0.815" width="9.504" height="28.513" style="fill:none;stroke:#000;stroke-width:1.16px;"/><rect x="0" y="25.22" width="2.811" height="14.169"/><path d="M9.873,29.201c2.946,0 4.565,1.934 4.79,4.318l-2.272,0.157c-0.202,-1.484 -1.034,-2.406 -2.518,-2.406c-1.485,0 -2.519,1.102 -2.519,3.171c0,2.047 1.034,3.148 2.519,3.148c1.484,0 2.316,-0.944 2.518,-2.451l2.272,0.203c-0.225,2.383 -1.844,4.318 -4.79,4.318c-3.059,0 -5.241,-2.07 -5.241,-5.218c0,-3.148 2.182,-5.24 5.241,-5.24Z" style="fill-rule:nonzero;"/><path d="M23.298,33.429c-0.09,-1.147 -0.787,-2.249 -2.294,-2.249c-1.484,0 -2.226,1.012 -2.474,2.249l4.768,0Zm2.564,2.721c-0.517,2.204 -2.227,3.509 -4.768,3.509c-3.059,0 -5.262,-1.957 -5.262,-5.083c0,-3.126 2.226,-5.375 5.195,-5.375c3.238,0 4.903,2.249 4.903,4.948l0,0.967l-7.445,0c0.09,1.462 1.237,2.496 2.699,2.496c1.327,0 2.114,-0.562 2.496,-1.687l2.182,0.225Z" style="fill-rule:nonzero;"/><rect x="27.661" y="25.22" width="2.699" height="14.169"/><path d="M38.591,34.846l-1.867,0.405c-1.17,0.247 -2.002,0.449 -2.002,1.439c0,0.675 0.518,1.079 1.372,1.079c1.417,0 2.497,-1.079 2.497,-2.676l0,-0.247Zm2.631,2.136c0,0.518 0.27,0.765 0.697,0.765c0.27,0 0.54,-0.068 0.832,-0.202l0,1.439c-0.427,0.337 -0.967,0.63 -1.866,0.63c-1.125,0 -1.845,-0.652 -2.092,-1.732c-0.562,1.147 -1.911,1.754 -3.373,1.754c-2.069,0 -3.329,-1.034 -3.329,-2.744c0,-1.889 1.529,-2.676 3.778,-3.126l2.722,-0.539l0,-0.225c0,-1.102 -0.585,-1.777 -1.732,-1.777c-1.125,0 -1.732,0.675 -1.957,1.642l-2.451,-0.225c0.337,-2.024 1.889,-3.441 4.52,-3.441c2.564,0 4.251,1.214 4.251,3.823l0,3.958Z" style="fill-rule:nonzero;"/><path d="M46.731,39.389l-2.699,0l0,-9.918l2.699,0l0,1.619c0.495,-1.124 1.755,-1.889 3.239,-1.889c2.653,0 3.621,1.799 3.621,4.003l0,6.185l-2.699,0l0,-5.645c0,-1.53 -0.607,-2.407 -1.934,-2.407c-1.372,0 -2.227,1.08 -2.227,2.744l0,5.308Z" style="fill-rule:nonzero;"/><path d="M63.081,34.239c0,-1.8 -1.102,-2.924 -2.632,-2.924c-1.686,0 -2.563,1.237 -2.563,3.126c0,1.867 0.877,3.104 2.563,3.104c1.53,0 2.632,-1.102 2.632,-2.924l0,-0.382Zm-0.022,3.261c-0.45,1.192 -1.665,2.159 -3.419,2.159c-2.946,0 -4.475,-2.294 -4.475,-5.218c0,-2.924 1.529,-5.24 4.475,-5.24c1.754,0 2.969,0.967 3.419,2.181l0,-6.162l2.698,0l0,14.169l-2.698,0l0,-1.889Z" style="fill-rule:nonzero;"/><path d="M2.811,48.479l0,11.83l7.489,0l0,2.339l-10.3,0l0,-14.169l2.811,0Z" style="fill-rule:nonzero;"/><path d="M14.753,52.73l0,9.918l-2.699,0l0,-9.918l2.699,0Zm-2.744,-4.251l2.766,0l0,2.631l-2.766,0l0,-2.631Z" style="fill-rule:nonzero;"/><path d="M23.951,56.688c-0.09,-1.147 -0.787,-2.249 -2.295,-2.249c-1.484,0 -2.226,1.012 -2.473,2.249l4.768,0Zm2.564,2.721c-0.518,2.204 -2.227,3.508 -4.768,3.508c-3.059,0 -5.263,-1.956 -5.263,-5.082c0,-3.126 2.226,-5.375 5.195,-5.375c3.239,0 4.903,2.249 4.903,4.947l0,0.968l-7.444,0c0.09,1.461 1.237,2.496 2.698,2.496c1.328,0 2.115,-0.562 2.497,-1.686l2.182,0.224Z" style="fill-rule:nonzero;"/><path d="M33.103,52.46c2.947,0 4.566,1.934 4.791,4.318l-2.272,0.157c-0.202,-1.484 -1.034,-2.406 -2.519,-2.406c-1.484,0 -2.518,1.102 -2.518,3.171c0,2.047 1.034,3.148 2.518,3.148c1.485,0 2.317,-0.944 2.519,-2.451l2.272,0.203c-0.225,2.384 -1.844,4.317 -4.791,4.317c-3.058,0 -5.24,-2.069 -5.24,-5.217c0,-3.149 2.182,-5.24 5.24,-5.24Z" style="fill-rule:nonzero;"/><path d="M42.301,62.648l-2.699,0l0,-14.169l2.699,0l0,5.87c0.495,-1.124 1.755,-1.889 3.239,-1.889c2.653,0 3.621,1.799 3.621,4.003l0,6.185l-2.699,0l0,-5.645c0,-1.53 -0.607,-2.407 -1.934,-2.407c-1.372,0 -2.227,1.08 -2.227,2.744l0,5.308Z" style="fill-rule:nonzero;"/><path d="M51.701,54.619l-1.416,0l0,-1.597l0.674,-0.112c0.968,-0.158 1.237,-0.653 1.462,-1.575l0.315,-1.349l1.642,0l0,2.744l2.699,0l0,1.889l-2.699,0l0,4.903c0,0.854 0.382,1.237 1.192,1.237c0.539,0 1.102,-0.203 1.687,-0.473l0,1.777c-0.72,0.54 -1.53,0.854 -2.744,0.854c-1.53,0 -2.812,-0.674 -2.812,-2.788l0,-5.51Z" style="fill-rule:nonzero;"/><path d="M65.667,56.688c-0.09,-1.147 -0.787,-2.249 -2.294,-2.249c-1.484,0 -2.226,1.012 -2.474,2.249l4.768,0Zm2.564,2.721c-0.517,2.204 -2.226,3.508 -4.768,3.508c-3.059,0 -5.263,-1.956 -5.263,-5.082c0,-3.126 2.227,-5.375 5.196,-5.375c3.238,0 4.903,2.249 4.903,4.947l0,0.968l-7.445,0c0.09,1.461 1.237,2.496 2.699,2.496c1.327,0 2.114,-0.562 2.497,-1.686l2.181,0.224Z" style="fill-rule:nonzero;"/><path d="M72.773,62.648l-2.698,0l0,-9.918l2.698,0l0,1.619c0.495,-1.124 1.755,-1.889 3.239,-1.889c2.654,0 3.621,1.799 3.621,4.003l0,6.185l-2.699,0l0,-5.645c0,-1.53 -0.607,-2.407 -1.934,-2.407c-1.372,0 -2.227,1.08 -2.227,2.744l0,5.308Z" style="fill-rule:nonzero;"/><path d="M83.456,59.274c0.157,1.192 1.057,1.8 2.428,1.8c0.99,0 1.8,-0.338 1.8,-1.058c0,-0.674 -0.45,-0.967 -1.44,-1.124l-1.574,-0.27c-2.114,-0.337 -3.283,-1.124 -3.283,-2.969c0,-1.889 1.596,-3.193 4.115,-3.193c2.744,0 4.386,1.237 4.566,3.441l-2.227,0.09c-0.18,-1.125 -0.944,-1.687 -2.361,-1.687c-0.967,0 -1.597,0.427 -1.597,1.102c0,0.54 0.36,0.855 1.079,0.967l1.89,0.315c2.091,0.337 3.328,1.214 3.328,3.081c0,2.024 -1.754,3.148 -4.318,3.148c-2.586,0 -4.565,-1.124 -4.745,-3.553l2.339,-0.09Z" style="fill-rule:nonzero;"/><path d="M92.249,54.619l-1.417,0l0,-1.597l0.675,-0.112c0.966,-0.158 1.236,-0.653 1.461,-1.575l0.315,-1.349l1.642,0l0,2.744l2.699,0l0,1.889l-2.699,0l0,4.903c0,0.854 0.383,1.237 1.192,1.237c0.54,0 1.102,-0.203 1.686,-0.473l0,1.777c-0.719,0.54 -1.529,0.854 -2.743,0.854c-1.529,0 -2.811,-0.674 -2.811,-2.788l0,-5.51Z" style="fill-rule:nonzero;"/><path d="M106.214,56.688c-0.09,-1.147 -0.787,-2.249 -2.294,-2.249c-1.484,0 -2.226,1.012 -2.473,2.249l4.767,0Zm2.564,2.721c-0.517,2.204 -2.226,3.508 -4.768,3.508c-3.058,0 -5.262,-1.956 -5.262,-5.082c0,-3.126 2.226,-5.375 5.195,-5.375c3.238,0 4.903,2.249 4.903,4.947l0,0.968l-7.444,0c0.089,1.461 1.237,2.496 2.698,2.496c1.327,0 2.114,-0.562 2.497,-1.686l2.181,0.224Z" style="fill-rule:nonzero;"/><path d="M113.321,52.73l0,9.918l-2.699,0l0,-9.918l2.699,0Zm-2.744,-4.251l2.766,0l0,2.631l-2.766,0l0,-2.631Z" style="fill-rule:nonzero;"/><path d="M118.336,62.648l-2.699,0l0,-9.918l2.699,0l0,1.619c0.495,-1.124 1.754,-1.889 3.238,-1.889c2.654,0 3.621,1.799 3.621,4.003l0,6.185l-2.699,0l0,-5.645c0,-1.53 -0.607,-2.407 -1.934,-2.407c-1.372,0 -2.226,1.08 -2.226,2.744l0,5.308Z" style="fill-rule:nonzero;"/><path d="M9.491,81.184l0,-9.446l2.608,0l0,14.169l-2.249,0l-7.242,-9.986l0,9.986l-2.608,0l0,-14.169l2.788,0l6.703,9.446Z" style="fill-rule:nonzero;"/><path d="M19.115,84.13c1.665,0 2.52,-1.304 2.52,-3.171c0,-1.889 -0.855,-3.193 -2.52,-3.193c-1.641,0 -2.496,1.304 -2.496,3.193c0,1.867 0.855,3.171 2.496,3.171Zm0,2.047c-3.058,0 -5.217,-2.137 -5.217,-5.218c0,-3.081 2.159,-5.24 5.217,-5.24c3.082,0 5.241,2.159 5.241,5.24c0,3.081 -2.159,5.218 -5.241,5.218Z" style="fill-rule:nonzero;"/><path d="M32.722,78.643c-0.518,-0.293 -0.968,-0.428 -1.62,-0.428c-1.394,0 -2.339,0.99 -2.339,2.789l0,4.903l-2.698,0l0,-9.918l2.698,0l0,1.889c0.36,-1.124 1.395,-2.159 2.767,-2.159c0.607,0 1.101,0.157 1.394,0.405l-0.202,2.519Z" style="fill-rule:nonzero;"/><path d="M43.966,82.601l0.09,0l2.047,-6.612l2.451,0l-3.149,9.918l-2.608,0l-1.8,-6.545l-0.09,0l-1.799,6.545l-2.631,0l-3.149,-9.918l2.676,0l2.069,6.612l0.09,0l1.8,-6.612l2.181,0l1.822,6.612Z" style="fill-rule:nonzero;"/><path d="M55.548,81.364l-1.867,0.405c-1.169,0.247 -2.002,0.449 -2.002,1.439c0,0.675 0.518,1.079 1.372,1.079c1.417,0 2.497,-1.079 2.497,-2.676l0,-0.247Zm2.631,2.137c0,0.517 0.27,0.764 0.697,0.764c0.27,0 0.54,-0.067 0.833,-0.202l0,1.439c-0.428,0.337 -0.968,0.63 -1.867,0.63c-1.125,0 -1.844,-0.653 -2.092,-1.732c-0.562,1.147 -1.912,1.754 -3.373,1.754c-2.069,0 -3.329,-1.034 -3.329,-2.743c0,-1.889 1.53,-2.677 3.779,-3.127l2.721,-0.539l0,-0.225c0,-1.103 -0.585,-1.777 -1.732,-1.777c-1.125,0 -1.732,0.674 -1.957,1.642l-2.451,-0.225c0.337,-2.024 1.889,-3.441 4.52,-3.441c2.564,0 4.251,1.214 4.251,3.823l0,3.959Z" style="fill-rule:nonzero;"/><path d="M62.024,89.595l1.529,-3.643l-4.115,-9.963l2.834,0l2.698,6.769l0.09,0l2.677,-6.769l2.631,0l-5.69,13.606l-2.654,0Z" style="fill-rule:nonzero;"/><path d="M78.261,76.821c-1.574,0 -2.519,0.877 -2.519,2.384c0,1.484 0.945,2.362 2.519,2.362c1.619,0 2.564,-0.878 2.564,-2.362c0,-1.507 -0.945,-2.384 -2.564,-2.384Zm-0.18,12.19c2.429,0 4.161,-0.585 4.161,-2.272c0,-1.034 -0.878,-1.417 -2.182,-1.417l-3.081,0c-1.192,0 -2.227,0.383 -2.227,1.642c0,1.439 1.372,2.047 3.329,2.047Zm0.18,-6.523c-0.81,0 -1.53,-0.135 -2.137,-0.427c-0.404,0.203 -0.809,0.607 -0.809,1.125c0,0.607 0.337,0.921 1.282,0.921l3.778,0c2.092,0 3.194,1.08 3.194,2.587c0,2.407 -2.632,3.306 -5.488,3.306c-2.586,0 -4.723,-0.899 -4.723,-2.699c0,-1.192 0.832,-1.934 2.069,-2.204c-0.899,-0.27 -1.259,-0.877 -1.259,-1.596c0,-0.833 0.584,-1.395 1.372,-1.799c-0.765,-0.563 -1.215,-1.44 -1.215,-2.519c0,-2.047 1.642,-3.307 3.936,-3.307c1.26,0 2.339,0.383 3.036,1.08c0.517,-0.787 1.372,-1.327 2.406,-1.327l0,1.327c-0.742,0 -1.529,0.202 -2.001,0.472c0.337,0.495 0.517,1.08 0.517,1.755c0,2.046 -1.664,3.305 -3.958,3.305Z" style="fill-rule:nonzero;"/><path d="M90.36,77.518c-0.563,-0.292 -0.9,-0.382 -1.484,-0.382c-1.418,0 -2.564,1.461 -2.564,3.418l0,5.353l-1.372,0l0,-9.761l1.372,0l0,2.047c0.382,-1.125 1.371,-2.317 2.811,-2.317c0.607,0 1.034,0.135 1.394,0.45l-0.157,1.192Z" style="fill-rule:nonzero;"/><path d="M97.961,80.869l-2.384,0.518c-1.777,0.382 -2.879,0.741 -2.879,2.046c0,0.922 0.608,1.687 1.89,1.687c1.911,0 3.373,-1.462 3.373,-3.644l0,-0.607Zm1.305,3.396c0,0.517 0.314,0.765 0.809,0.765c0.225,0 0.607,-0.09 0.877,-0.248l0,0.743c-0.292,0.337 -0.607,0.584 -1.282,0.584c-0.967,0 -1.664,-0.832 -1.709,-2.069c-0.518,1.147 -1.957,2.137 -3.621,2.137c-1.822,0 -3.036,-1.012 -3.036,-2.699c0,-1.844 1.619,-2.586 4.048,-3.081l2.609,-0.54l0,-0.495c0,-1.484 -0.877,-2.406 -2.407,-2.406c-1.574,0 -2.451,0.922 -2.788,2.181l-1.169,-0.225c0.382,-1.754 1.821,-3.036 3.935,-3.036c2.429,0 3.734,1.282 3.734,3.689l0,4.7Z" style="fill-rule:nonzero;"/><path d="M103.763,85.907l-1.372,0l0,-9.761l1.372,0l0,1.8c0.472,-1.192 1.821,-2.07 3.284,-2.07c2.518,0 3.575,1.642 3.575,3.981l0,6.05l-1.372,0l0,-6.095c0,-1.731 -0.899,-2.856 -2.563,-2.856c-1.552,0 -2.924,1.215 -2.924,3.104l0,5.847Z" style="fill-rule:nonzero;"/><path d="M113.433,77.158l-1.507,0l0,-0.674l0.585,-0.113c0.899,-0.18 1.079,-0.607 1.282,-1.551l0.292,-1.395l0.697,0l0,2.721l2.834,0l0,1.012l-2.834,0l0,6.613c0,0.876 0.36,1.304 1.259,1.304c0.675,0 1.35,-0.338 1.912,-0.675l0,0.967c-0.697,0.54 -1.394,0.81 -2.383,0.81c-1.305,0 -2.137,-0.652 -2.137,-2.429l0,-6.59Z" style="fill-rule:nonzero;"/><path d="M119.932,82.466c0.202,1.687 1.349,2.631 3.216,2.631c1.507,0 2.564,-0.562 2.564,-1.709c0,-1.08 -0.765,-1.417 -2.137,-1.664l-1.687,-0.292c-1.709,-0.293 -2.766,-1.08 -2.766,-2.655c0,-1.754 1.462,-2.901 3.599,-2.901c2.518,0 3.98,1.192 4.138,3.509l-1.057,0.09c-0.248,-1.754 -1.282,-2.519 -3.081,-2.519c-1.395,0 -2.317,0.63 -2.317,1.664c0,0.945 0.562,1.417 1.777,1.619l1.799,0.293c1.912,0.315 3.036,0.99 3.036,2.721c0,1.912 -1.709,2.924 -3.846,2.924c-2.361,0 -4.183,-1.17 -4.34,-3.576l1.102,-0.135Z" style="fill-rule:nonzero;"/></g></svg>